<?xml version="1.0" encoding="UTF-8"?>
<svg width="500" height="500" version="1.1" viewBox="0 0 500 500" xmlns="http://www.w3.org/2000/svg">
 <defs>
  <filter id="filter2463" x="-.072447" y="-.051203" width="1.1449" height="1.1024" color-interpolation-filters="sRGB">
   <feGaussianBlur stdDeviation="6.0372761"/>
  </filter>
  <filter id="filter2483" x="-.21734" y="-.15361" width="1.4347" height="1.3072" color-interpolation-filters="sRGB">
   <feGaussianBlur stdDeviation="18.111828"/>
  </filter>
 </defs>
 <g transform="translate(0 -591.25)" fill="#fffbfb" fill-rule="evenodd" shape-rendering="auto">
  <path d="m237.95 699.76c-30.373 0.24069-59.871 16.089-76.117 44.229-24.393 42.25-9.853 96.516 32.397 120.91l7.1181 4.1097 8.2193-14.236-7.1181-4.1097c-34.556-19.951-46.332-63.897-26.381-98.454s63.897-46.332 98.454-26.381l7.1181 4.1097-11.854 20.531-7.1181-4.1097c-7.2027-4.1585-15.057-6.2395-22.857-6.4326-17.161-0.42478-34.062 8.2904-43.211 24.136-13.307 23.049-5.3465 52.761 17.702 66.068l63.173 36.473c15.355 8.8651 20.55 28.257 11.685 43.612-8.865 15.355-28.257 20.552-43.612 11.687l-7.1181-4.1097-0.0401 0.0674-14.236-8.2193-28.252 48.937 21.354 12.329c42.25 24.393 96.516 9.8513 120.91-32.399 24.393-42.25 9.853-96.516-32.397-120.91l-7.1181-4.1097-8.2193 14.236 7.1181 4.1097c34.556 19.951 46.332 63.897 26.381 98.454-19.951 34.556-63.897 46.332-98.454 26.381l-7.1181-4.1097 11.854-20.531 7.1181 4.1097c23.049 13.307 52.761 5.3449 66.068-17.704 13.307-23.049 5.3465-52.761-17.702-66.068l-63.173-36.473c-15.355-8.8651-20.55-28.257-11.685-43.612 8.8651-15.355 28.257-20.552 43.612-11.687l7.1181 4.1097 0.0401-0.0674 14.236 8.2193 28.252-48.937-21.354-12.329c-13.203-7.6229-27.579-11.443-41.851-11.804-0.98118-0.0248-1.9612-0.0335-2.941-0.0257z" color="#000000" color-rendering="auto" dominant-baseline="auto" filter="url(#filter2483)" image-rendering="auto" solid-color="#000000" style="font-feature-settings:normal;font-variant-alternates:normal;font-variant-caps:normal;font-variant-ligatures:normal;font-variant-numeric:normal;font-variant-position:normal;isolation:auto;mix-blend-mode:normal;paint-order:markers fill stroke;shape-padding:0;text-decoration-color:#000000;text-decoration-line:none;text-decoration-style:solid;text-indent:0;text-orientation:mixed;text-transform:none;white-space:normal"/>
  <path d="m237.95 699.76c-30.373 0.24069-59.871 16.089-76.117 44.229-3e-5 6e-5 -7e-5 1.1e-4 -1e-4 1.6e-4 -24.393 42.25-9.8528 96.516 32.397 120.91 0 0 7e-5 5e-5 2.1e-4 1.3e-4 0.0368 0.0212 7.1179 4.1095 7.1179 4.1095s8e-5 -1.4e-4 2.5e-4 -4.3e-4c0.0425-0.0736 8.2191-14.236 8.2191-14.236s-8e-5 -4e-5 -2.2e-4 -1.2e-4c-0.0368-0.0212-7.1178-4.1096-7.1178-4.1096-1.8e-4 -1e-4 -3.5e-4 -2e-4 -5.3e-4 -3e-4 -34.556-19.951-46.331-63.897-26.38-98.454 1e-4 -1.7e-4 2e-4 -3.5e-4 3e-4 -5.2e-4 19.951-34.556 63.897-46.331 98.454-26.38 0 0 7e-5 5e-5 2.1e-4 1.3e-4 0.0368 0.0212 7.1179 4.1095 7.1179 4.1095s-3e-5 6e-5 -9e-5 1.6e-4c-0.0308 0.0533-11.854 20.531-11.854 20.531s-8e-5 -4e-5 -2.2e-4 -1.2e-4c-0.0368-0.0212-7.1178-4.1096-7.1178-4.1096-1.5e-4 -8e-5 -3e-4 -1.7e-4 -4.4e-4 -2.5e-4 -7.2026-4.1583-15.056-6.2392-22.856-6.4323-1.8e-4 0-3.5e-4 -1e-5 -5.3e-4 -1e-5 -17.16-0.42459-34.062 8.2905-43.21 24.136l-2.1e-4 3.6e-4c-13.307 23.049-5.3462 52.76 17.702 66.067 0 0 7e-5 5e-5 2.1e-4 1.3e-4 0.0368 0.0212 7.1179 4.1095 7.1179 4.1095s1.2e-4 8e-5 3.7e-4 2.2e-4c0.12694 0.0733 48.937 28.254 48.937 28.254s7e-5 5e-5 2.1e-4 1.3e-4c0.0368 0.0212 7.1179 4.1095 7.1179 4.1095 1.5e-4 9e-5 3.1e-4 1.8e-4 4.7e-4 2.7e-4 15.354 8.8652 20.55 28.257 11.685 43.612-9e-5 1.6e-4 -1.8e-4 3.2e-4 -2.7e-4 4.7e-4 -8.8652 15.354-28.257 20.551-43.612 11.686 0 0-8e-5 -4e-5 -2.2e-4 -1.2e-4 -0.0368-0.0212-7.1179-4.1096-7.1179-4.1096s-1.1e-4 1.8e-4 -3e-4 5.1e-4c-3e-3 5e-3 -0.0398 0.0669-0.0398 0.0669s-1.5e-4 -8e-5 -4.4e-4 -2.5e-4c-0.0736-0.0425-14.236-8.2191-14.236-8.2191s-8e-5 1.3e-4 -2.2e-4 3.8e-4c-0.0733 0.12694-28.252 48.937-28.252 48.937s1.4e-4 9e-5 4.3e-4 2.5e-4c0.0736 0.0425 14.236 8.2191 14.236 8.2191s7e-5 5e-5 2.1e-4 1.3e-4c0.0368 0.0212 7.1178 4.1095 7.1178 4.1095 1e-4 7e-5 2.1e-4 1.3e-4 3.2e-4 1.9e-4 42.25 24.393 96.516 9.851 120.91-32.399 6e-5 -1e-4 1.2e-4 -2.1e-4 1.8e-4 -3.2e-4 24.393-42.25 9.8527-96.516-32.398-120.91 0 0-8e-5 -4e-5 -2.2e-4 -1.2e-4 -0.0368-0.0212-7.1178-4.1096-7.1178-4.1096s-9e-5 1.5e-4 -2.5e-4 4.4e-4c-0.0425 0.0736-8.2191 14.236-8.2191 14.236s7e-5 5e-5 2.1e-4 1.3e-4c0.0368 0.0212 7.1179 4.1095 7.1179 4.1095 1.7e-4 1e-4 3.5e-4 2.1e-4 5.2e-4 3.1e-4 34.556 19.951 46.331 63.897 26.38 98.454-1e-4 1.8e-4 -2.1e-4 3.5e-4 -3.1e-4 5.3e-4 -19.951 34.556-63.897 46.331-98.454 26.38 0 0-8e-5 -4e-5 -2.2e-4 -1.2e-4 -0.0368-0.0212-7.1178-4.1095-7.1178-4.1095s3e-5 -5e-5 9e-5 -1.5e-4c0.0308-0.0533 11.854-20.531 11.854-20.531s7e-5 5e-5 2.1e-4 1.3e-4c0.0368 0.0212 7.1179 4.1095 7.1179 4.1095 1.1e-4 7e-5 2.3e-4 1.4e-4 3.5e-4 2.1e-4 23.049 13.307 52.76 5.3446 66.067-17.704 6e-5 -1.1e-4 1.3e-4 -2.3e-4 2e-4 -3.5e-4 13.307-23.049 5.3462-52.76-17.702-66.067 0 0-8e-5 -4e-5 -2.2e-4 -1.2e-4 -0.0368-0.0212-7.1179-4.1095-7.1179-4.1095s-1.3e-4 -7e-5 -3.8e-4 -2.1e-4c-0.12694-0.0733-48.937-28.254-48.937-28.254s-8e-5 -4e-5 -2.2e-4 -1.2e-4c-0.0368-0.0212-7.1179-4.1096-7.1179-4.1096-1.6e-4 -9e-5 -3.2e-4 -1.8e-4 -4.7e-4 -2.7e-4 -15.354-8.8652-20.55-28.257-11.685-43.612 9e-5 -1.5e-4 1.8e-4 -3.1e-4 2.7e-4 -4.7e-4 8.8652-15.354 28.257-20.551 43.612-11.686 0 0 7e-5 5e-5 2.1e-4 1.3e-4 0.0368 0.0212 7.1179 4.1095 7.1179 4.1095s1e-4 -1.7e-4 3e-4 -5e-4c3e-3 -5e-3 0.0398-0.0669 0.0398-0.0669s1.4e-4 9e-5 4.3e-4 2.5e-4c0.0736 0.0425 14.236 8.2191 14.236 8.2191s7e-5 -1.2e-4 2.1e-4 -3.7e-4c0.0733-0.12694 28.252-48.937 28.252-48.937l-21.354-12.329c-13.203-7.6229-27.579-11.443-41.851-11.804-0.98118-0.0248-1.9612-0.0335-2.941-0.0257v2e-5" color="#000000" color-rendering="auto" dominant-baseline="auto" filter="url(#filter2463)" image-rendering="auto" solid-color="#000000" style="font-feature-settings:normal;font-variant-alternates:normal;font-variant-caps:normal;font-variant-ligatures:normal;font-variant-numeric:normal;font-variant-position:normal;isolation:auto;mix-blend-mode:normal;paint-order:markers fill stroke;shape-padding:0;text-decoration-color:#000000;text-decoration-line:none;text-decoration-style:solid;text-indent:0;text-orientation:mixed;text-transform:none;white-space:normal"/>
  <path d="m236.56 701.79c-33.567 0.37854-66.031 22.417-78.275 54.031-14.911 35.28-2.525 79.503 28.592 101.86 4.3112 3.2753 9.0549 5.9082 13.738 8.6018 2.139-5.072 10.256-11.746 1.0243-13.771-28.666-15.742-43.731-51.85-34.768-83.295 7.7649-30.922 37.319-54.55 69.237-55.046 17.309-0.87706 33.995 5.6798 48.264 15.042-4.6173 7.9983-9.2362 15.996-13.854 23.994-12.405-8.5431-27.904-14.129-42.973-9.959-23.471 5.024-39.66 30.376-34.541 53.756 2.7572 16.062 14.906 28.895 29.416 35.51 20.012 11.939 40.727 22.794 60.367 35.307 14.75 11.137 16.925 34.57 4.6524 48.34-10.707 13.393-31.619 15.867-45.489 5.9827-5.6596-3.1452-11.367-6.4736-17.064-9.762-8.7513 15.158-17.503 30.315-26.254 45.473 17.216 10.213 34.753 21.456 55.266 22.566 36.532 3.6913 73.793-18.653 87.439-52.802 15.13-34.742 3.7177-78.564-26.487-101.47-4.7939-3.8413-10.143-6.8906-15.468-9.9198-2.139 5.072-10.256 11.746-1.0243 13.771 28.667 15.742 43.731 51.85 34.768 83.295-7.7654 30.922-37.319 54.549-69.237 55.046-17.309 0.87664-33.995-5.6802-48.264-15.042 4.6175-7.9989 9.236-15.997 13.854-23.996 12.07 8.3698 27.146 13.858 41.877 10.213 22.745-4.3758 39.444-27.783 36.154-50.701-1.7102-16.907-13.683-31.299-28.898-38.221-20.358-12.136-41.415-23.195-61.403-35.902-14.75-11.137-16.925-34.569-4.6524-48.34 10.707-13.394 31.62-15.867 45.489-5.9827 5.6596 3.1452 11.367 6.4736 17.064 9.762 8.7513-15.158 17.503-30.315 26.254-45.473-16.796-9.9764-34.024-21.034-53.998-22.453-3.5891-0.36016-7.2004-0.5026-10.807-0.41406z" color="#000000" color-rendering="auto" dominant-baseline="auto" image-rendering="auto" solid-color="#000000" style="font-feature-settings:normal;font-variant-alternates:normal;font-variant-caps:normal;font-variant-ligatures:normal;font-variant-numeric:normal;font-variant-position:normal;isolation:auto;mix-blend-mode:normal;paint-order:markers fill stroke;shape-padding:0;text-decoration-color:#000000;text-decoration-line:none;text-decoration-style:solid;text-indent:0;text-orientation:mixed;text-transform:none;white-space:normal"/>
 </g>
</svg>
